<?xml version="1.0" encoding="utf-8"?>
<!-- Generator: Adobe Illustrator 16.0.0, SVG Export Plug-In . SVG Version: 6.00 Build 0)  -->
<!DOCTYPE svg PUBLIC "-//W3C//DTD SVG 1.1//EN" "http://www.w3.org/Graphics/SVG/1.1/DTD/svg11.dtd">
<svg version="1.1" id="Layer_1" xmlns="http://www.w3.org/2000/svg" xmlns:xlink="http://www.w3.org/1999/xlink" x="0px" y="0px"
	 width="1000px" height="1000px" viewBox="0 0 1000 1000" enable-background="new 0 0 1000 1000" xml:space="preserve">
<g>
	<g>
		<path fill="#AE2024" d="M97.446,540.202c5.31,2.655,11.757,0.128,13.78-5.563l1.517-4.299c0.506-1.391,0.506-2.779,0.379-4.172
			c0.254-3.793-1.517-7.458-4.931-9.229c-18.206-9.229-30.976-27.814-31.986-49.433c0-2.782,0-5.563,0.379-8.346
			c3.289-27.309,26.171-48.928,53.606-50.824c17.827-1.264,34.01,5.563,45.515,17.067c3.413,3.415,8.723,3.667,12.643,0.76
			l3.667-2.655c2.655-2.023,3.92-5.059,3.792-8.219c0.379-2.908-0.379-5.816-2.655-8.092
			c-16.689-16.941-40.711-26.803-67.007-24.148c-37.551,3.667-68.399,33.378-73.205,70.801c-0.631,4.678-0.883,9.229-0.631,13.781
			C52.563,499.492,70.896,526.801,97.446,540.202z"/>
		<path fill="#AE2024" d="M176.213,520.479c0-2.275,0-4.424-0.127-6.701c-0.379-5.941-5.816-10.24-11.632-9.102l-4.424,0.885
			c-4.805,1.011-8.091,5.438-7.839,10.367c1.138,23.389-11.884,46.4-35.652,56.514c-25.288,10.748-55.505,1.771-70.802-20.986
			c-7.081-10.494-10.24-22.379-9.988-34.01c0.252-4.047,0.885-7.965,1.896-11.885c0.379-1.392,0.379-2.654,0.252-3.918
			c0.127-3.92-1.896-7.712-5.689-9.357l-4.172-1.77c-5.564-2.401-11.759,0.758-13.401,6.575c-1.645,6.195-2.657,12.642-2.782,19.089
			c-0.886,17.828,3.92,36.286,15.425,52.342c21.999,30.597,63.087,42.483,97.983,28.069
			C157.627,582.936,176.086,552.213,176.213,520.479z"/>
		<path fill="#AE2024" d="M211.613,462.195c-29.584-22.504-67.641-21.999-95.708-3.541c-3.161,2.149-4.803,5.69-4.424,9.229
			c-0.127,2.403,0.504,4.931,2.275,7.081l3.034,3.414c3.161,3.541,8.471,4.551,12.516,1.897c19.723-12.897,46.4-13.276,67.134,2.274
			c14.793,11.125,22.885,28.7,23.012,46.526c-0.254,8.092-2.023,16.184-5.691,23.769c-7.71,15.931-21.493,26.553-37.042,30.725
			c-4.805,1.263-7.966,5.688-7.46,10.619l0.125,0.631c0,0.38-0.125,0.634-0.125,1.013l0.506,4.552
			c0.758,5.94,6.572,9.735,12.388,8.218c24.402-6.449,45.894-23.895,56.136-50.447c4.172-10.746,5.941-21.744,5.437-32.617
			C243.221,501.136,231.968,477.873,211.613,462.195z"/>
	</g>
	<g>
		<path fill="#626365" d="M400.754,554.109c-0.127-1.644-1.896-2.781-3.414-2.023c-7.587,3.289-19.092,5.311-27.942,5.311
			c-29.459,0-53.479-21.997-53.859-55.123c0.379-31.733,22.126-55.124,54.87-55.124c9.231,0,18.079,2.022,26.173,6.195
			c1.517,0.759,3.413-0.126,3.541-1.896l1.135-14.287c0-0.127-0.125-0.253-0.125-0.379l0.125-1.139
			c0.127-1.138-0.504-2.148-1.515-2.527c-9.736-3.92-19.978-5.437-30.47-5.437c-43.619,0-75.48,29.332-75.48,73.33
			c0,0.254,0,0.506,0,0.759s0,0.505,0,0.759c0,45.387,30.09,74.467,75.353,74.467c7.964,0,20.355-0.506,30.849-4.426
			c1.011-0.379,1.642-1.39,1.517-2.527l-0.127-1.266c0-0.127,0.127-0.254,0.127-0.254L400.754,554.109z"/>
		<path fill="#626365" d="M451.199,466.114c-29.459,0-48.929,21.873-48.929,52.848c0,0.252,0,0.632,0,0.886c0,0.252,0,0.504,0,0.758
			c0,34.011,16.942,56.514,53.986,56.514c15.931,0,24.402-3.538,31.354-6.195c1.013-0.379,1.646-1.263,1.646-2.275v-1.517v-11.378
			v-1.518c0-1.896-2.023-3.035-3.667-2.15c-6.574,3.668-18.207,8.092-28.446,8.092c-17.196,0-32.493-12.643-34.137-31.48
			c0.254-1.013,1.265-1.771,2.402-1.771h69.538c1.39,0,2.528-1.137,2.4-2.527c0-0.506,0-1.01,0-1.39v-0.127
			C496.587,490.262,485.082,466.114,451.199,466.114z M474.211,510.743h-48.679c-1.135,0-2.021-0.759-2.273-1.642
			c2.273-12.644,10.24-25.793,27.561-25.793c15.424,0,24.529,11.253,25.792,25.666C476.232,509.984,475.349,510.743,474.211,510.743
			z"/>
		<path fill="#626365" d="M559.045,466.114c-14.541,0-28.447,7.207-34.137,19.092h-0.379v-12.644v-1.517
			c0-1.391-1.139-2.403-2.403-2.403h-13.78c-1.39,0-2.402,1.138-2.402,2.403v1.517v97.982v1.518c0,1.392,1.138,2.402,2.402,2.402
			h14.414c1.39,0,2.402-1.138,2.402-2.402v-1.518v-44.25c0-25.411,9.861-42.986,31.732-42.986
			c16.816,1.012,22.127,12.896,22.127,37.297v50.066v1.518c0,1.392,1.137,2.402,2.402,2.402h14.412c1.392,0,2.402-1.138,2.402-2.402
			v-1.518V512.64v-1.515C598.238,482.93,586.1,466.114,559.045,466.114z"/>
		<path fill="#626365" d="M669.42,557.902c-2.53,1.138-5.816,1.896-9.736,1.896c-8.85,0-16.183-6.574-16.183-18.586v-53.099
			c0-1.392,1.138-2.403,2.4-2.403h22.76c1.39,0,2.4-1.138,2.4-2.403v-1.517v-9.229v-1.517c0-1.391-1.138-2.403-2.4-2.403h-22.76
			c-1.39,0-2.4-1.137-2.4-2.401v-23.137v-1.517c0-1.644-1.644-2.782-3.161-2.275l-14.414,4.551
			c-1.011,0.379-1.643,1.264-1.643,2.276v1.517v18.333c0,1.391-1.139,2.403-2.402,2.403h-18.713c-1.39,0-2.4,1.138-2.4,2.401v1.517
			v9.104v1.517c0,1.391,1.136,2.402,2.4,2.402h18.713c1.391,0,2.402,1.138,2.402,2.403v57.019v1.517
			c0,20.861,12.264,30.345,32.112,30.345c5.312,0,10.494-1.265,14.666-2.402c1.013-0.252,1.771-1.266,1.771-2.403v-1.517v-8.977
			v-1.518C672.705,558.408,670.937,557.271,669.42,557.902z"/>
		<path fill="#626365" d="M740.475,467.127c-3.162-0.634-5.943-1.013-10.749-1.013c-10.999,0-22.124,7.839-27.182,18.586h-0.379
			v-12.137v-1.517c0-1.391-1.138-2.403-2.403-2.403h-13.148c-1.393,0-2.402,1.138-2.402,2.403v1.517v97.982v1.518
			c0,1.392,1.137,2.402,2.402,2.402h14.414c1.39,0,2.4-1.138,2.4-2.402v-1.518v-43.492c0-26.169,11.252-42.605,28.448-42.605
			c2.4,0,5.058,0.252,7.585,0.884c1.518,0.379,3.034-0.758,3.034-2.402v-1.517v-10.241v-1.517
			C742.495,468.391,741.609,467.379,740.475,467.127z"/>
		<path fill="#626365" d="M770.943,423.508h-16.816c-1.393,0-2.402,1.136-2.402,2.401v1.517v15.297v1.518
			c0,1.39,1.138,2.403,2.402,2.403h16.816c1.391,0,2.4-1.139,2.4-2.403v-1.518v-15.171v-1.516
			C773.344,424.645,772.206,423.508,770.943,423.508z"/>
		<path fill="#626365" d="M769.679,468.517h-14.414c-1.39,0-2.402,1.138-2.402,2.403v1.517v97.983v1.518
			c0,1.39,1.138,2.402,2.402,2.402h14.414c1.39,0,2.402-1.138,2.402-2.402v-1.518v-97.857v-1.517
			C772.081,469.654,771.068,468.517,769.679,468.517z"/>
		<path fill="#626365" d="M945.671,468.517h-14.162c-1.011,0-2.023,0.632-2.275,1.644l-28.067,84.708h-0.379l-27.436-84.708
			c-0.38-1.012-1.266-1.644-2.275-1.644h-38.562c-1.393,0-2.403-1.138-2.403-2.403v-7.206c0-14.161,2.023-24.781,18.586-24.781
			c2.148,0,4.551,0.127,6.447,0.506c1.518,0.252,2.782-0.759,2.909-2.277l0.505-10.367c0-0.126-0.125-0.126-0.125-0.253l0.125-1.39
			c0-1.264-0.884-2.402-2.021-2.528c-3.289-0.505-6.702-0.885-10.746-0.885c-28.449,0-35.023,16.563-35.023,41.975v1.517v5.563
			c0,1.391-1.138,2.403-2.402,2.403h-19.722c-1.392,0-2.402,1.138-2.402,2.401v1.517v9.104v1.517c0,1.391,1.138,2.402,2.402,2.402
			h19.722c1.392,0,2.402,1.138,2.402,2.403v82.431v1.517c0,1.393,1.138,2.402,2.402,2.402h14.412c1.392,0,2.402-1.138,2.402-2.402
			v-1.517v-82.431c0-1.392,1.138-2.403,2.403-2.403h23.137c1.013,0,1.896,0.632,2.275,1.643l29.207,80.284
			c1.138,3.286,3.286,7.965,3.54,10.367c-0.886,4.803-6.953,24.905-22.76,24.905c-2.148,0-4.297-0.379-6.195-0.758
			c-1.515-0.38-2.906,0.633-3.033,2.15l-0.759,10.619c0,0.127,0.127,0.254,0.127,0.379l-0.127,1.266
			c-0.125,1.265,0.759,2.402,2.023,2.527c2.906,0.506,6.067,1.013,11,1.013c25.413,0,32.998-23.137,40.078-43.239l37.297-103.42
			c0.254-0.505,0.127-1.011,0-1.517l0,0C948.577,470.287,947.439,468.517,945.671,468.517z"/>
		<path fill="#626365" d="M979.427,488.366c-0.634-1.138-1.266-1.896-1.645-2.275l0,0c0.507-0.253,1.011-0.505,1.392-0.885
			c0.632-0.758,1.011-1.518,1.011-2.656c0-0.252-0.127-0.379-0.127-0.631c0.127-0.253,0.127-0.633,0.127-1.012
			c0-0.886-0.252-1.645-0.631-2.276c-0.38-0.632-1.013-1.138-1.645-1.391c-0.631-0.252-1.769-0.38-3.288-0.38h-6.068l-0.125,14.288
			l0,0v1.517h2.907v-5.943h0.631c0.634,0,1.139,0,1.393,0.127c0.252,0.126,0.631,0.253,0.884,0.632
			c0.254,0.253,0.758,1.012,1.519,2.148l2.021,3.161h3.413l-1.011-1.517h1.011L979.427,488.366z M976.771,482.171
			c-0.252,0.253-0.506,0.506-0.759,0.632c-0.379,0.126-1.265,0.126-2.529,0.126h-2.148v-2.022h2.275c1.138,0,1.896,0,2.15,0
			c0.505,0.126,0.884,0.253,1.138,0.632c0.125,0.126,0.125,0.252,0.125,0.379C976.898,481.919,976.898,482.045,976.771,482.171z"/>
		<path fill="#626365" d="M988.276,484.068c0-8.093-6.574-14.667-14.666-14.667s-14.666,6.574-14.666,14.667
			c0,0.252,0,0.505,0.127,0.758c0,0.252-0.127,0.505-0.127,0.759c0,8.09,6.574,14.665,14.666,14.665s14.666-6.574,14.666-14.665
			c0-0.253-0.127-0.506-0.127-0.759C988.149,484.574,988.276,484.32,988.276,484.068z M973.61,496.079
			c-6.322,0-11.505-4.931-11.884-11.252c0.379-6.195,5.562-11.252,11.884-11.252s11.505,4.93,11.884,11.252
			C985.115,491.148,979.933,496.079,973.61,496.079z"/>
	</g>
</g>
</svg>
