<?xml version="1.0" encoding="utf-8"?>
<!-- Generator: Adobe Illustrator 19.2.1, SVG Export Plug-In . SVG Version: 6.00 Build 0)  -->
<svg version="1.1" id="layer" xmlns="http://www.w3.org/2000/svg" xmlns:xlink="http://www.w3.org/1999/xlink" x="0px" y="0px"
	 viewBox="0 0 652 652" style="enable-background:new 0 0 652 652;" xml:space="preserve">
<style type="text/css">
	.st0{fill:#F17582;}
</style>
<polygon class="st0" points="21.3,291.3 22.2,401.7 55.4,401.7 58.3,291.3 "/>
<g>
	<path class="st0" d="M113.9,238.4l-0.8,53.9c9.2-3,17.7-4.5,25.6-4.5c10.1,0,19.4,3,27.9,9.1c15,10.8,22.5,26.7,22.5,47.7
		c0,19.4-6.5,34.6-19.5,45.6c-11.4,9.7-25.2,14.6-41.6,14.6c-13.5,0-26.5-3.4-38.9-10.1c-3.6-1.9-7.1-4.3-10.5-7.1
		c1.5-5.6,2.2-12.5,2.1-20.8l-1.4-102.7c0-6-0.6-12.7-1.9-20L113.9,238.4z M112.4,323.3l0.2,47.1c5.3,3.3,10.8,4.9,16.6,4.9
		c9.5,0,17-3.8,22.4-11.3c3.6-5,5.5-11.2,5.5-18.6c0-9.1-2.8-16-8.4-20.7c-5.1-4.3-11.2-6.5-18.2-6.5
		C124.4,318.3,118.3,320,112.4,323.3"/>
	<path class="st0" d="M258.6,286.8c10.8,0,21,3,30.4,8.9c18.3,11.6,27.4,28.4,27.4,50.3c0,9-2,17.6-6.1,25.8
		c-5.6,11.2-13.9,19.9-25.1,25.9c-9,4.9-18.7,7.3-29.2,7.3c-18.2,0-32.9-6.5-44-19.6c-9-10.6-13.5-23.2-13.5-37.7
		c0-17.5,6.3-32.3,19-44.5C229.1,292.2,242.7,286.8,258.6,286.8 M258.5,317.2c-8.7,0-15.8,3.5-21,10.6c-4.3,6-6.5,12.3-6.5,19
		c0,7.5,2.5,14.1,7.4,19.9c5,5.8,11,8.7,18,8.7c5.7,0,10.8-1.9,15.6-5.7c7.8-6.2,11.7-14.2,11.7-24c0-9.1-3.2-16.7-9.6-22.7
		C269.9,319.1,264.7,317.2,258.5,317.2"/>
	<path class="st0" d="M397.7,298.8l-0.1,27.1l-27.4-0.2l-0.7,26.2l-0.1,5.1c0,5.3,0.8,9.1,2.4,11.5c2.7,3.9,6.2,5.8,10.6,5.8
		c3.3,0,7.6-1.2,12.9-3.7l8.5,21.9c-10,7.4-19.9,11-29.8,11c-10,0-18.5-3.3-25.7-9.9c-7.1-6.5-10.5-14.3-10.5-23.3l0.1-45.3
		l-14.9-0.5l0.1-26.5h15.2l0.1-16.3c0.2-8.7-0.1-14.9-0.8-18.7l33.3,0.4c0,1.7-0.1,4.5-0.4,8.2c-0.1,1.3-0.2,4.3-0.2,8.8l-0.5,17.8
		L397.7,298.8z"/>
	<path class="st0" d="M481.6,298.8l-0.1,27.1l-27.4-0.2l-0.7,26.2l-0.1,5.1c0,5.3,0.8,9.1,2.4,11.5c2.7,3.9,6.2,5.8,10.6,5.8
		c3.3,0,7.6-1.2,12.9-3.7l8.5,21.9c-10,7.4-19.9,11-29.8,11c-10,0-18.5-3.3-25.7-9.9c-7.1-6.5-10.5-14.3-10.5-23.3l0.1-45.3
		l-14.9-0.5l0.1-26.5h15.2l0.1-16.3c0.2-8.7-0.1-14.9-0.8-18.7l33.3,0.4c0,1.7-0.1,4.5-0.3,8.2c-0.1,1.3-0.2,4.3-0.2,8.8l-0.5,17.8
		L481.6,298.8z"/>
	<path class="st0" d="M499.1,296.5c15.9-5.8,30.7-8.7,44.3-8.7c13.6,0,24.9,3.1,33.9,9.3c7.4,5.1,11.6,12.7,12.5,22.8
		c0.2,1.5,0.2,3.1,0.2,4.8l0.2,36.6c0.2,15.7,2.7,28.1,7.7,37l-30.3,7.8l-4.3-11.4c-7.8,6.8-17.4,10.2-28.7,10.2
		c-13.6,0-24.4-5.1-32.3-15.2c-6.1-7.9-9.2-16.5-9.2-25.8c0-11.5,4.4-20.9,13.1-28.2c8-6.7,17.7-10.1,29.3-10.1
		c7.5,0,15.6,1.9,24.2,5.6c-1.5-11.9-8.7-17.9-21.6-17.9c-10.1,0-20.4,2.2-30.8,6.6L499.1,296.5z M542.1,346.9
		c-5,0-9.2,1.8-12.4,5.5c-3.1,3.4-4.7,7.1-4.7,11c0,4.6,1.9,8.7,5.7,12.4c3.2,3.1,7.1,4.6,11.6,4.6c5.2,0,9.5-1.9,13-5.8
		c2.6-2.8,3.8-6.2,3.8-10.2c0-5.2-1.7-9.4-5-12.7C550.8,348.5,546.8,346.9,542.1,346.9"/>
	<path class="st0" d="M58.3,279h-2.2c-27.2,0-35.4-15.2-35.4-15.2V238c0,0,9.2,8.8,34.9,8.8h2.7V279z"/>
	<path class="st0" d="M617.5,284.5c-2.1,2.2-4.8,3.2-7.8,3.2c-3,0-5.6-1.1-7.8-3.2c-2.1-2.2-3.2-4.8-3.2-7.8c0-3,1.1-5.6,3.2-7.8
		c2.1-2.1,4.7-3.2,7.8-3.2c3.1,0,5.7,1.1,7.8,3.2c2.2,2.1,3.2,4.7,3.2,7.8C620.7,279.7,619.6,282.3,617.5,284.5 M603,270
		c-1.8,1.9-2.8,4.1-2.8,6.7c0,2.6,0.9,4.9,2.7,6.8c1.8,1.9,4.1,2.8,6.7,2.8c2.6,0,4.9-0.9,6.7-2.8c1.8-1.9,2.8-4.1,2.8-6.8
		c0-2.6-0.9-4.9-2.8-6.7c-1.9-1.9-4.1-2.8-6.7-2.8C607.1,267.2,604.8,268.1,603,270 M609.4,270.6c1.5,0,2.6,0.1,3.3,0.4
		c1.3,0.5,1.9,1.5,1.9,3.1c0,1.1-0.4,1.9-1.2,2.4c-0.4,0.3-1,0.5-1.7,0.6c0.9,0.2,1.6,0.6,2.1,1.2c0.4,0.6,0.7,1.3,0.7,1.9v0.9
		c0,0.3,0,0.6,0,0.9c0,0.3,0.1,0.5,0.1,0.6l0.1,0.2h-2c0,0,0-0.1,0-0.1c0,0,0-0.1,0-0.1l0-0.4v-1c0-1.4-0.4-2.3-1.1-2.8
		c-0.5-0.3-1.2-0.4-2.4-0.4h-1.7v4.8h-2.1v-12.1H609.4z M611.8,272.5c-0.5-0.3-1.4-0.5-2.6-0.5h-1.8v4.4h1.9c0.9,0,1.6-0.1,2-0.3
		c0.8-0.3,1.2-1,1.2-1.9C612.6,273.4,612.3,272.8,611.8,272.5"/>
</g>
</svg>
